<svg width="93" height="92" viewBox="0 0 93 92" fill="none" xmlns="http://www.w3.org/2000/svg">
<path fill-rule="evenodd" clip-rule="evenodd" d="M49.8916 11.473C28.6734 11.473 11.4727 28.6737 11.4727 49.8919C11.4727 71.1101 28.6734 88.3108 49.8916 88.3108C71.1098 88.3108 88.3105 71.1101 88.3105 49.8919C88.3105 28.6737 71.1098 11.473 49.8916 11.473ZM13.4727 49.8919C13.4727 29.7783 29.778 13.473 49.8916 13.473C70.0052 13.473 86.3105 29.7783 86.3105 49.8919C86.3105 70.0055 70.0052 86.3108 49.8916 86.3108C29.778 86.3108 13.4727 70.0055 13.4727 49.8919ZM50.8916 33.2613C50.8916 32.709 50.4439 32.2613 49.8916 32.2613C49.3393 32.2613 48.8916 32.709 48.8916 33.2613V48.8919H33.2609C32.7087 48.8919 32.2609 49.3396 32.2609 49.8919C32.2609 50.4442 32.7087 50.8919 33.2609 50.8919H48.8916V66.5225C48.8916 67.0748 49.3393 67.5225 49.8916 67.5225C50.4439 67.5225 50.8916 67.0748 50.8916 66.5225V50.8919H66.5222C67.0745 50.8919 67.5222 50.4442 67.5222 49.8919C67.5222 49.3396 67.0745 48.8919 66.5222 48.8919H50.8916V33.2613Z" fill="#D9D9D9"/>
<path d="M48.8916 48.8919V49.3919H49.3916V48.8919H48.8916ZM48.8916 50.8919H49.3916V50.3919H48.8916V50.8919ZM50.8916 50.8919V50.3919H50.3916V50.8919H50.8916ZM50.8916 48.8919H50.3916V49.3919H50.8916V48.8919ZM11.9727 49.8919C11.9727 28.9499 28.9495 11.973 49.8916 11.973V10.973C28.3972 10.973 10.9727 28.3976 10.9727 49.8919H11.9727ZM49.8916 87.8108C28.9495 87.8108 11.9727 70.834 11.9727 49.8919H10.9727C10.9727 71.3862 28.3972 88.8108 49.8916 88.8108V87.8108ZM87.8105 49.8919C87.8105 70.834 70.8336 87.8108 49.8916 87.8108V88.8108C71.3859 88.8108 88.8105 71.3862 88.8105 49.8919H87.8105ZM49.8916 11.973C70.8336 11.973 87.8105 28.9499 87.8105 49.8919H88.8105C88.8105 28.3976 71.3859 10.973 49.8916 10.973V11.973ZM49.8916 12.973C29.5018 12.973 12.9727 29.5021 12.9727 49.8919H13.9727C13.9727 30.0544 30.0541 13.973 49.8916 13.973V12.973ZM86.8105 49.8919C86.8105 29.5021 70.2813 12.973 49.8916 12.973V13.973C69.7291 13.973 85.8105 30.0544 85.8105 49.8919H86.8105ZM49.8916 86.8108C70.2813 86.8108 86.8105 70.2817 86.8105 49.8919H85.8105C85.8105 69.7294 69.7291 85.8108 49.8916 85.8108V86.8108ZM12.9727 49.8919C12.9727 70.2817 29.5018 86.8108 49.8916 86.8108V85.8108C30.0541 85.8108 13.9727 69.7294 13.9727 49.8919H12.9727ZM49.8916 32.7613C50.1677 32.7613 50.3916 32.9851 50.3916 33.2613H51.3916C51.3916 32.4329 50.72 31.7613 49.8916 31.7613V32.7613ZM49.3916 33.2613C49.3916 32.9851 49.6154 32.7613 49.8916 32.7613V31.7613C49.0631 31.7613 48.3916 32.4329 48.3916 33.2613H49.3916ZM49.3916 48.8919V33.2613H48.3916V48.8919H49.3916ZM33.2609 49.3919H48.8916V48.3919H33.2609V49.3919ZM32.7609 49.8919C32.7609 49.6158 32.9848 49.3919 33.2609 49.3919V48.3919C32.4325 48.3919 31.7609 49.0635 31.7609 49.8919H32.7609ZM33.2609 50.3919C32.9848 50.3919 32.7609 50.1681 32.7609 49.8919H31.7609C31.7609 50.7203 32.4325 51.3919 33.2609 51.3919V50.3919ZM48.8916 50.3919H33.2609V51.3919H48.8916V50.3919ZM49.3916 66.5225V50.8919H48.3916V66.5225H49.3916ZM49.8916 67.0225C49.6154 67.0225 49.3916 66.7987 49.3916 66.5225H48.3916C48.3916 67.351 49.0631 68.0225 49.8916 68.0225V67.0225ZM50.3916 66.5225C50.3916 66.7987 50.1677 67.0225 49.8916 67.0225V68.0225C50.72 68.0225 51.3916 67.351 51.3916 66.5225H50.3916ZM50.3916 50.8919V66.5225H51.3916V50.8919H50.3916ZM66.5222 50.3919H50.8916V51.3919H66.5222V50.3919ZM67.0222 49.8919C67.0222 50.1681 66.7983 50.3919 66.5222 50.3919V51.3919C67.3506 51.3919 68.0222 50.7203 68.0222 49.8919H67.0222ZM66.5222 49.3919C66.7983 49.3919 67.0222 49.6158 67.0222 49.8919H68.0222C68.0222 49.0635 67.3506 48.3919 66.5222 48.3919V49.3919ZM50.8916 49.3919H66.5222V48.3919H50.8916V49.3919ZM50.3916 33.2613V48.8919H51.3916V33.2613H50.3916Z" fill="white"/>
</svg>