<svg width="41" height="41" viewBox="0 0 41 41" fill="none" xmlns="http://www.w3.org/2000/svg">
<path d="M30.2239 19.0027C30.0473 18.9181 29.8679 18.8366 29.6862 18.7586C29.3697 12.9274 26.1835 9.58909 20.8334 9.55492C20.8091 9.55477 20.785 9.55477 20.7608 9.55477C17.5607 9.55477 14.8993 10.9207 13.2612 13.4063L16.2036 15.4247C17.4273 13.5681 19.3478 13.1723 20.7622 13.1723C20.7785 13.1723 20.7949 13.1723 20.8111 13.1724C22.5727 13.1837 23.902 13.6958 24.7623 14.6947C25.3884 15.4218 25.8072 16.4267 26.0145 17.6949C24.4527 17.4294 22.7636 17.3478 20.9579 17.4513C15.8713 17.7443 12.6012 20.711 12.8208 24.8332C12.9322 26.9242 13.9739 28.7231 15.7539 29.8982C17.2588 30.8916 19.197 31.3774 21.2114 31.2674C23.8717 31.1216 25.9586 30.1066 27.4145 28.2507C28.5202 26.8413 29.2196 25.0149 29.5284 22.7136C30.7962 23.4787 31.7358 24.4855 32.2547 25.6959C33.137 27.7534 33.1885 31.1344 30.4297 33.8908C28.0127 36.3055 25.1072 37.3501 20.7163 37.3824C15.8455 37.3463 12.1618 35.7842 9.76683 32.7396C7.52408 29.8886 6.36502 25.7706 6.32178 20.5C6.36502 15.2293 7.52408 11.1113 9.76683 8.26037C12.1618 5.21573 15.8455 3.6537 20.7162 3.6175C25.6223 3.65398 29.3701 5.22353 31.8568 8.28285C33.0762 9.78311 33.9955 11.6698 34.6015 13.8696L38.0495 12.9496C37.315 10.2419 36.1591 7.90867 34.5861 5.97361C31.3981 2.05143 26.7357 0.0416722 20.7282 0H20.7042C14.7089 0.0415275 10.0987 2.05893 7.00151 5.9961C4.24545 9.4997 2.8238 14.3747 2.77603 20.4856L2.77588 20.5L2.77603 20.5144C2.8238 26.6252 4.24545 31.5004 7.00151 35.004C10.0987 38.941 14.7089 40.9586 20.7042 41H20.7282C26.0583 40.9631 29.8154 39.5676 32.9104 36.4753C36.9598 32.4297 36.8379 27.3587 35.5033 24.2457C34.5458 22.0134 32.7202 20.2002 30.2239 19.0027ZM21.021 27.6551C18.7916 27.7807 16.4755 26.78 16.3613 24.6367C16.2767 23.0476 17.4923 21.2743 21.1578 21.0631C21.5776 21.0389 21.9895 21.027 22.3942 21.027C23.7256 21.027 24.9712 21.1564 26.1036 21.4039C25.6812 26.6788 23.2037 27.5353 21.021 27.6551Z" fill="#D9D9D9" fill-opacity="0.56"/>
<path d="M37.4301 12.5974C36.7086 10.1546 35.6281 8.04817 34.1981 6.289L34.1981 6.28898C31.1227 2.50526 26.615 0.541225 20.7265 0.5H20.7059C14.8303 0.541077 10.3785 2.51193 7.39449 6.30524C4.72837 9.6945 3.32323 14.4488 3.27601 20.4895L3.276 20.4908L3.27591 20.5L3.276 20.5092L3.27601 20.5105C3.32323 26.5511 4.72838 31.3056 7.39449 34.6948C10.3785 38.4881 14.8304 40.459 20.706 40.5H20.7264C25.9548 40.4635 29.5747 39.1012 32.5571 36.1216L32.9104 36.4753L32.5571 36.1215C36.435 32.2472 36.3137 27.4051 35.0438 24.4428C34.1406 22.3372 32.4111 20.6066 30.0078 19.4536L37.4301 12.5974ZM37.4301 12.5974L34.946 13.2602C34.3264 11.2079 33.4254 9.42008 32.2448 7.9675L32.2448 7.96748C29.6415 4.76464 25.7354 3.1548 20.7199 3.11752V3.11746L20.7125 3.11752C15.7325 3.15452 11.8865 4.75708 9.37384 7.95123C7.03775 10.9209 5.86555 15.163 5.8218 20.4959H5.82173L5.8218 20.5041C5.86555 25.837 7.03775 30.079 9.37384 33.0487C11.8865 36.2429 15.7326 37.8455 20.7126 37.8824L20.7199 37.8824C25.2031 37.8495 28.2488 36.7763 30.7831 34.2445L30.7831 34.2445C33.7078 31.3223 33.6647 27.7152 32.7142 25.4988C32.147 24.1758 31.1274 23.0946 29.7867 22.2855L29.1342 21.8917L29.0328 22.6471C28.7325 24.8851 28.0581 26.6204 27.0211 27.9421L27.0211 27.9421C25.6661 29.6693 23.7212 30.6291 21.184 30.7682C19.2633 30.873 17.4341 30.4082 16.0293 29.4809C14.3788 28.3912 13.4229 26.7358 13.3201 24.8066C13.2183 22.8958 13.9208 21.2693 15.2354 20.0766C16.5584 18.8765 18.53 18.092 20.9865 17.9505L37.4301 12.5974ZM29.2037 19.0956L29.1869 18.7857C29.0331 15.9522 28.1859 13.7868 26.7867 12.3291C25.3929 10.8772 23.3979 10.0713 20.8303 10.0549C20.8302 10.0549 20.8302 10.0549 20.8302 10.0549M29.2037 19.0956L20.7608 9.55477L20.8334 9.55492L20.8302 10.0549M29.2037 19.0956L29.489 19.218M29.2037 19.0956L29.489 19.218M20.8302 10.0549L20.7608 10.0548C17.8933 10.0548 15.5126 11.2004 13.9606 13.2797M20.8302 10.0549L13.9606 13.2797M13.9606 13.2797L16.085 14.737C17.4397 13.0349 19.3735 12.6723 20.7622 12.6723H20.7632L13.9606 13.2797ZM29.489 19.218C29.6643 19.2933 29.8373 19.3719 30.0076 19.4535L29.489 19.218ZM16.3613 24.6367L15.862 24.6633C15.812 23.7245 16.1502 22.7339 17.021 21.9596C17.883 21.1929 19.225 20.6736 21.129 20.5639M16.3613 24.6367L22.3942 21.027C23.7256 21.027 24.9712 21.1564 26.1036 21.4039C25.6812 26.6788 23.2037 27.5353 21.021 27.6551M16.3613 24.6367C16.4755 26.78 18.7916 27.7807 21.021 27.6551M16.3613 24.6367L15.862 24.6633C15.93 25.9385 16.6623 26.8619 17.6483 27.43C18.6217 27.9908 19.8591 28.2213 21.0487 28.1544M21.129 20.5639L21.1578 21.0631L21.129 20.5639C21.129 20.5639 21.129 20.5639 21.129 20.5639ZM21.129 20.5639C21.5582 20.5391 21.9798 20.527 22.3942 20.527C23.7575 20.527 25.0392 20.6594 26.2104 20.9155L26.6368 21.0087L26.602 21.4438C26.3854 24.1494 25.6341 25.8217 24.5649 26.827C23.4946 27.8332 22.1889 28.0918 21.0487 28.1544M21.0487 28.1544C21.0489 28.1544 21.049 28.1544 21.0491 28.1544L21.021 27.6551M21.0487 28.1544C21.0486 28.1544 21.0485 28.1544 21.0484 28.1544L21.021 27.6551M25.1412 14.3683C24.1578 13.2267 22.6696 12.6845 20.8153 12.6724L20.9866 17.9505C22.7598 17.8489 24.4108 17.9295 25.9308 18.1878L26.621 18.3051L26.508 17.6142C26.2907 16.2854 25.8447 15.1854 25.1412 14.3684L25.1412 14.3683Z" stroke="#D9D9D9" stroke-opacity="0.56"/>
</svg>